<svg width="48" height="47" viewBox="0 0 48 47" fill="none" xmlns="http://www.w3.org/2000/svg">
<rect x="0.5" width="47" height="47" rx="23.5" fill="#DEB6AB"/>
<path d="M24 23.316C25.355 23.316 26.872 23.166 27.84 22.06C28.654 21.13 28.918 19.692 28.646 17.668C28.266 14.843 26.529 13.156 24 13.156C21.471 13.156 19.734 14.843 19.354 17.67C19.082 19.692 19.346 21.13 20.16 22.06C21.128 23.167 22.645 23.316 24 23.316ZM20.84 17.868C21.002 16.668 21.627 14.656 24 14.656C26.373 14.656 26.998 16.669 27.16 17.868C27.367 19.418 27.217 20.495 26.71 21.073C26.255 21.593 25.444 21.816 24 21.816C22.556 21.816 21.745 21.593 21.29 21.073C20.783 20.495 20.633 19.417 20.84 17.868ZM32.28 30.736C31.403 27.21 27.998 24.746 24 24.746C20.002 24.746 16.597 27.21 15.72 30.736C15.548 31.428 15.692 32.136 16.115 32.676C16.523 33.196 17.155 33.496 17.848 33.496H30.152C30.845 33.496 31.477 33.196 31.885 32.676C32.309 32.136 32.452 31.429 32.279 30.736H32.28ZM30.704 31.752C30.578 31.912 30.388 31.998 30.152 31.998H17.848C17.613 31.998 17.422 31.913 17.296 31.752C17.159 31.578 17.116 31.34 17.176 31.098C17.886 28.243 20.693 26.248 24 26.248C27.307 26.248 30.114 28.242 30.824 31.098C30.884 31.34 30.841 31.578 30.704 31.752Z" fill="#85586F"/>
</svg>
