<svg width="25" height="25" viewBox="0 0 25 25" fill="none" xmlns="http://www.w3.org/2000/svg">
<path d="M23.3958 8.07002L12.8718 2.61502C12.6395 2.49502 12.3614 2.49502 12.1291 2.61502L1.60723 8.07002C1.22807 8.26702 1.0864 8.72202 1.29161 9.08702C1.43223 9.33702 1.70203 9.48002 1.97911 9.48002C2.10411 9.48002 2.23223 9.45002 2.34994 9.39002L3.1989 8.95002L4.89578 20.463C5.11869 21.678 6.25828 22.525 7.66453 22.525H17.3333C18.7416 22.525 19.8801 21.677 20.1072 20.438L21.801 8.94802L22.6531 9.39002C23.0322 9.58302 23.5072 9.45002 23.7124 9.08602C23.9166 8.72302 23.7749 8.26802 23.3958 8.07002ZM18.5645 20.203C18.4531 20.809 17.8322 21.025 17.3354 21.025H7.66661C7.16661 21.025 6.54682 20.809 6.43953 20.227L4.66661 8.19002L12.4999 4.12802L20.3354 8.18802L18.5645 20.203Z" fill="#85586F"/>
<path d="M8.5625 12.6841C8.5625 14.7681 10.3281 16.4641 12.5 16.4641C14.6719 16.4641 16.4375 14.7681 16.4375 12.6841C16.4375 10.6001 14.6719 8.90405 12.5 8.90405C10.3281 8.90405 8.5625 10.6001 8.5625 12.6841ZM14.875 12.6841C14.875 13.9421 13.8104 14.9641 12.5 14.9641C11.1896 14.9641 10.125 13.9421 10.125 12.6841C10.125 11.4261 11.1896 10.4041 12.5 10.4041C13.8104 10.4041 14.875 11.4261 14.875 12.6841Z" fill="#85586F"/>
</svg>
