<svg width="19" height="21" viewBox="0 0 19 21" fill="none" xmlns="http://www.w3.org/2000/svg">
<path d="M9.49996 10.316C10.9114 10.316 12.4916 10.166 13.5 9.06001C14.3479 8.13001 14.6229 6.69201 14.3395 4.66801C13.9437 1.84301 12.1343 0.156006 9.49996 0.156006C6.86559 0.156006 5.05621 1.84301 4.66038 4.67001C4.37705 6.69201 4.65205 8.13001 5.49996 9.06001C6.5083 10.167 8.0885 10.316 9.49996 10.316ZM6.2083 4.86801C6.37705 3.66801 7.02809 1.65601 9.49996 1.65601C11.9718 1.65601 12.6229 3.66901 12.7916 4.86801C13.0073 6.41801 12.851 7.49501 12.3229 8.07301C11.8489 8.59301 11.0041 8.81601 9.49996 8.81601C7.9958 8.81601 7.151 8.59301 6.67705 8.07301C6.14892 7.49501 5.99267 6.41701 6.2083 4.86801ZM18.125 17.736C17.2114 14.21 13.6645 11.746 9.49996 11.746C5.33538 11.746 1.7885 14.21 0.874962 17.736C0.695796 18.428 0.845795 19.136 1.28642 19.676C1.71142 20.196 2.36975 20.496 3.09163 20.496H15.9083C16.6302 20.496 17.2885 20.196 17.7135 19.676C18.1552 19.136 18.3041 18.429 18.1239 17.736H18.125ZM16.4833 18.752C16.352 18.912 16.1541 18.998 15.9083 18.998H3.09163C2.84684 18.998 2.64788 18.913 2.51663 18.752C2.37392 18.578 2.32913 18.34 2.39163 18.098C3.13121 15.243 6.05517 13.248 9.49996 13.248C12.9448 13.248 15.8687 15.242 16.6083 18.098C16.6708 18.34 16.626 18.578 16.4833 18.752Z" fill="#85586F"/>
</svg>
